<svg xmlns="http://www.w3.org/2000/svg" width="192" height="24"><path d="M8 18 C87 6,94 6,171 12" stroke="#555" fill="none"/><path d="M12 6 C93 12,87 12,191 6" stroke="#555" fill="none"/><path fill="#333" d="M59.79 6.64L59.11 6.64C59.07 6.46 59.04 6.31 58.97 6.13L59.65 6.13C59.54 5.92 59.47 5.74 59.36 5.52C59.25 5.38 59.18 5.23 59.07 5.12L60.01 5.12C59.94 5.02 59.83 4.94 59.76 4.87L58.86 4.87C58.14 4.12 57.17 3.68 56.09 3.68L50.54 3.68L50.54 4.87L51.48 4.87L51.48 5.12L50.54 5.12L50.54 6.13L49.89 6.13L49.89 6.64L50.54 6.64L50.54 7.68L55.76 7.68L54.57 10.20L55.33 10.20L54.86 11.21L54.11 11.21L53.21 13.12L52.38 13.12L52.27 13.37L53.10 13.37L50.61 18.62L51.26 18.62L50.61 20.03L49.97 20.03L49.53 20.89L53.17 22.58L54.36 20.03L55.04 20.03L55.69 18.62L55.01 18.62L57.49 13.37L56.70 13.37L56.81 13.12L57.63 13.12L58.53 11.21L59.25 11.21L59.72 10.20L59.00 10.20L59.47 9.23C59.87 8.40 59.97 7.50 59.79 6.64Z"/><path fill="#222" d="M167.07 10.20L166.31 10.20L166.31 6.64L165.63 6.64L165.63 6.13L166.28 6.13L166.28 5.12L167.21 5.12L167.21 4.87L166.28 4.87L166.28 3.68L162.32 3.72L162.28 3.68L160.73 4.87L161.63 4.87L161.31 5.12L160.37 5.12L159.04 6.13L158.36 6.13L157.67 6.64L158.36 6.64L158.32 6.67L160.70 9.88L162.32 8.65L162.32 10.20L163.07 10.20L163.07 11.21L162.32 11.21L162.35 13.12L161.53 13.12L161.53 13.37L162.35 13.37L162.35 18.62L163.04 18.62L163.04 20.03L162.35 20.03L162.39 20.89L166.35 20.89L166.35 20.03L167.03 20.03L167.03 18.62L166.35 18.62L166.31 13.37L165.52 13.37L165.52 13.12L166.31 13.12L166.31 11.21L167.07 11.21Z"/><path fill="#333" d="M88.02 10.20L87.26 10.20C87.26 10.20 87.30 10.20 87.30 10.20L87.26 10.20C87.33 8.90 87.01 7.68 86.40 6.64L85.71 6.64C85.60 6.46 85.50 6.31 85.39 6.13L86.07 6.13C85.78 5.77 85.50 5.41 85.14 5.12L86.07 5.12C85.96 5.05 85.86 4.94 85.75 4.87L84.81 4.87C84.06 4.30 83.12 3.90 82.11 3.79C80.71 3.68 79.41 4.08 78.33 4.87L79.23 4.87C79.12 4.94 79.05 5.05 78.94 5.12L78.01 5.12C77.65 5.41 77.32 5.77 77.04 6.13L76.35 6.13C76.24 6.31 76.14 6.46 76.03 6.64L76.71 6.64C76.17 7.46 75.85 8.44 75.74 9.48C75.74 9.73 75.74 9.95 75.74 10.20L76.50 10.20C76.50 10.56 76.53 10.88 76.57 11.21L75.81 11.21C75.92 11.86 76.14 12.50 76.42 13.12L75.63 13.12C75.67 13.19 75.74 13.26 75.78 13.37L76.60 13.37C76.71 13.55 76.82 13.76 76.93 13.94C77.90 15.28 79.30 16.10 80.89 16.25C81.07 16.28 81.25 16.28 81.43 16.28C81.43 16.28 81.46 16.28 81.46 16.28C81.14 17.00 80.71 17.80 80.20 18.62L80.89 18.62C80.60 19.09 80.31 19.56 79.99 20.03L79.30 20.03C79.09 20.35 78.84 20.68 78.58 21L81.75 23.45C82.65 22.26 83.41 21.11 84.02 20.03L84.70 20.03C84.96 19.56 85.21 19.09 85.46 18.62L84.78 18.62C85.78 16.61 86.40 14.77 86.76 13.37L85.93 13.37C85.96 13.26 86.00 13.19 86.00 13.12L86.83 13.12C87.01 12.32 87.12 11.68 87.19 11.21L87.91 11.21C88.02 10.63 88.02 10.27 88.02 10.20ZM80.46 10.20L79.70 10.20C79.70 10.09 79.70 9.98 79.74 9.84C79.84 8.69 80.67 7.79 81.57 7.79C81.64 7.79 81.68 7.79 81.72 7.79C82.69 7.86 83.41 8.98 83.26 10.20C83.26 10.20 83.26 10.20 83.26 10.20L84.02 10.20C83.98 10.56 83.88 10.92 83.70 11.21L82.98 11.21C82.83 11.42 82.69 11.64 82.51 11.82C82.29 12.00 81.86 12.32 81.28 12.29C80.71 12.22 80.35 11.82 80.17 11.60C80.06 11.46 79.99 11.35 79.95 11.21L80.67 11.21C80.53 10.92 80.46 10.56 80.46 10.20Z"/><path fill="#333" d="M32.65 6.64L31.97 6.64C31.93 6.46 31.89 6.31 31.82 6.13L32.51 6.13C32.40 5.92 32.33 5.74 32.22 5.52C32.11 5.38 32.04 5.23 31.93 5.12L32.87 5.12C32.79 5.02 32.69 4.94 32.61 4.87L31.71 4.87C30.99 4.12 30.02 3.68 28.94 3.68L23.40 3.68L23.40 4.87L24.33 4.87L24.33 5.12L23.40 5.12L23.40 6.13L22.75 6.13L22.75 6.64L23.40 6.64L23.40 7.68L28.62 7.68L27.43 10.20L28.19 10.20L27.72 11.21L26.96 11.21L26.06 13.12L25.23 13.12L25.13 13.37L25.95 13.37L23.47 18.62L24.12 18.62L23.47 20.03L22.82 20.03L22.39 20.89L26.03 22.58L27.21 20.03L27.90 20.03L28.55 18.62L27.86 18.62L30.35 13.37L29.55 13.37L29.66 13.12L30.49 13.12L31.39 11.21L32.11 11.21L32.58 10.20L31.86 10.20L32.33 9.23C32.72 8.40 32.83 7.50 32.65 6.64Z"/><path d="M2 12 C108 18,104 18,172 18" stroke="#222" fill="none"/><path fill="#111" d="M139.93 10.20L139.17 10.20L139.17 6.64L138.49 6.64L138.49 6.13L139.13 6.13L139.13 5.12L140.07 5.12L140.07 4.87L139.13 4.87L139.13 3.68L135.17 3.72L135.14 3.68L133.59 4.87L134.49 4.87L134.17 5.12L133.23 5.12L131.90 6.13L131.21 6.13L130.53 6.64L131.21 6.64L131.18 6.67L133.55 9.88L135.17 8.65L135.17 10.20L135.93 10.20L135.93 11.21L135.17 11.21L135.21 13.12L134.38 13.12L134.38 13.37L135.21 13.37L135.21 18.62L135.89 18.62L135.89 20.03L135.21 20.03L135.25 20.89L139.21 20.89L139.21 20.03L139.89 20.03L139.89 18.62L139.21 18.62L139.17 13.37L138.38 13.37L138.38 13.12L139.17 13.12L139.17 11.21L139.93 11.21Z"/><path fill="#222" d="M113.54 11.21C113.68 10.92 113.79 10.60 113.90 10.20L113.14 10.20C113.29 9.77 113.36 9.30 113.36 8.72C113.36 7.97 113.18 7.28 112.86 6.64L112.17 6.64C112.10 6.46 111.99 6.31 111.88 6.13L112.57 6.13C112.42 5.92 112.24 5.70 112.03 5.48C111.88 5.34 111.74 5.23 111.56 5.12L112.50 5.12C112.39 5.05 112.28 4.94 112.17 4.87L111.27 4.87C109.36 3.65 106.66 3.65 104.97 3.68L104.61 3.68L104.61 4.87L105.51 4.87L105.51 5.12L104.61 5.12L104.61 6.13L103.93 6.13L103.93 6.64L104.61 6.64L104.61 7.68L105.01 7.68C106.05 7.64 108.54 7.64 109.22 8.33C109.29 8.36 109.36 8.44 109.36 8.72C109.36 9.34 109.18 9.52 109.11 9.59C108.75 9.91 108.03 10.06 107.24 10.13C106.41 10.06 105.62 10.06 104.97 10.06L104.58 10.06L104.58 10.20L105.33 10.20L105.33 11.21L104.58 11.21L104.58 13.12L103.78 13.12L103.78 13.37L104.58 13.37L104.58 14.05L104.61 14.05L104.61 14.12C104.79 14.12 105.01 14.12 105.22 14.12C105.51 14.16 105.80 14.16 106.12 14.16C106.48 14.16 106.84 14.12 107.20 14.12C108.03 14.20 108.82 14.38 109.15 14.74C109.22 14.81 109.36 14.92 109.36 15.31C109.36 16.07 109.11 16.32 109.04 16.39C108.39 17.04 106.45 17.00 105.30 16.97C105.04 16.97 104.79 16.97 104.58 16.97L104.58 18.62L105.26 18.62L105.26 20.03L104.58 20.03L104.58 20.96C104.79 20.96 104.97 20.96 105.22 20.96C105.48 20.96 105.80 20.96 106.12 20.96C107.56 20.96 109.29 20.86 110.73 20.03L111.42 20.03C111.81 19.81 112.17 19.56 112.50 19.24C112.68 19.06 112.86 18.84 113.00 18.62L112.32 18.62C113.00 17.72 113.32 16.64 113.32 15.31C113.32 14.63 113.22 13.94 112.96 13.37L112.14 13.37C112.10 13.26 112.06 13.19 111.99 13.12L112.82 13.12C112.64 12.76 112.42 12.43 112.17 12.14C112.39 11.89 112.60 11.57 112.78 11.21Z"/></svg>